<svg width="1363" height="163" viewBox="0 0 1363 163" fill="none" xmlns="http://www.w3.org/2000/svg">
<path d="M0 15C0 6.71573 6.71573 0 15 0H37V163H15C6.71573 163 0 156.284 0 148V15Z" fill="#2F9089"/>
<rect width="1097" height="163" transform="translate(37)" fill="#F0F0F0"/>
<path d="M100.676 57.4375L104.695 43.9375H108.609L102.668 61H100.09L100.676 57.4375ZM96.9727 43.9375L100.98 57.4375L101.59 61H98.9883L93.082 43.9375H96.9727ZM108.914 54.7891V54.543C108.914 53.6133 109.047 52.7578 109.312 51.9766C109.578 51.1875 109.965 50.5039 110.473 49.9258C110.98 49.3477 111.605 48.8984 112.348 48.5781C113.09 48.25 113.941 48.0859 114.902 48.0859C115.863 48.0859 116.719 48.25 117.469 48.5781C118.219 48.8984 118.848 49.3477 119.355 49.9258C119.871 50.5039 120.262 51.1875 120.527 51.9766C120.793 52.7578 120.926 53.6133 120.926 54.543V54.7891C120.926 55.7109 120.793 56.5664 120.527 57.3555C120.262 58.1367 119.871 58.8203 119.355 59.4062C118.848 59.9844 118.223 60.4336 117.48 60.7539C116.738 61.0742 115.887 61.2344 114.926 61.2344C113.965 61.2344 113.109 61.0742 112.359 60.7539C111.617 60.4336 110.988 59.9844 110.473 59.4062C109.965 58.8203 109.578 58.1367 109.312 57.3555C109.047 56.5664 108.914 55.7109 108.914 54.7891ZM112.289 54.543V54.7891C112.289 55.3203 112.336 55.8164 112.43 56.2773C112.523 56.7383 112.672 57.1445 112.875 57.4961C113.086 57.8398 113.359 58.1094 113.695 58.3047C114.031 58.5 114.441 58.5977 114.926 58.5977C115.395 58.5977 115.797 58.5 116.133 58.3047C116.469 58.1094 116.738 57.8398 116.941 57.4961C117.145 57.1445 117.293 56.7383 117.387 56.2773C117.488 55.8164 117.539 55.3203 117.539 54.7891V54.543C117.539 54.0273 117.488 53.543 117.387 53.0898C117.293 52.6289 117.141 52.2227 116.93 51.8711C116.727 51.5117 116.457 51.2305 116.121 51.0273C115.785 50.8242 115.379 50.7227 114.902 50.7227C114.426 50.7227 114.02 50.8242 113.684 51.0273C113.355 51.2305 113.086 51.5117 112.875 51.8711C112.672 52.2227 112.523 52.6289 112.43 53.0898C112.336 53.543 112.289 54.0273 112.289 54.543ZM126.562 48.3203V61H123.176V48.3203H126.562ZM122.965 45.0156C122.965 44.5234 123.137 44.1172 123.48 43.7969C123.824 43.4766 124.285 43.3164 124.863 43.3164C125.434 43.3164 125.891 43.4766 126.234 43.7969C126.586 44.1172 126.762 44.5234 126.762 45.0156C126.762 45.5078 126.586 45.9141 126.234 46.2344C125.891 46.5547 125.434 46.7148 124.863 46.7148C124.285 46.7148 123.824 46.5547 123.48 46.2344C123.137 45.9141 122.965 45.5078 122.965 45.0156ZM134.59 58.5977C135.004 58.5977 135.371 58.5195 135.691 58.3633C136.012 58.1992 136.262 57.9727 136.441 57.6836C136.629 57.3867 136.727 57.0391 136.734 56.6406H139.91C139.902 57.5312 139.664 58.3242 139.195 59.0195C138.727 59.707 138.098 60.25 137.309 60.6484C136.52 61.0391 135.637 61.2344 134.66 61.2344C133.676 61.2344 132.816 61.0703 132.082 60.7422C131.355 60.4141 130.75 59.9609 130.266 59.3828C129.781 58.7969 129.418 58.1172 129.176 57.3438C128.934 56.5625 128.812 55.7266 128.812 54.8359V54.4961C128.812 53.5977 128.934 52.7617 129.176 51.9883C129.418 51.207 129.781 50.5273 130.266 49.9492C130.75 49.3633 131.355 48.9062 132.082 48.5781C132.809 48.25 133.66 48.0859 134.637 48.0859C135.676 48.0859 136.586 48.2852 137.367 48.6836C138.156 49.082 138.773 49.6523 139.219 50.3945C139.672 51.1289 139.902 52 139.91 53.0078H136.734C136.727 52.5859 136.637 52.2031 136.465 51.8594C136.301 51.5156 136.059 51.2422 135.738 51.0391C135.426 50.8281 135.039 50.7227 134.578 50.7227C134.086 50.7227 133.684 50.8281 133.371 51.0391C133.059 51.2422 132.816 51.5234 132.645 51.8828C132.473 52.2344 132.352 52.6367 132.281 53.0898C132.219 53.5352 132.188 54.0039 132.188 54.4961V54.8359C132.188 55.3281 132.219 55.8008 132.281 56.2539C132.344 56.707 132.461 57.1094 132.633 57.4609C132.812 57.8125 133.059 58.0898 133.371 58.293C133.684 58.4961 134.09 58.5977 134.59 58.5977ZM147.703 61.2344C146.719 61.2344 145.836 61.0781 145.055 60.7656C144.273 60.4453 143.609 60.0039 143.062 59.4414C142.523 58.8789 142.109 58.2266 141.82 57.4844C141.531 56.7344 141.387 55.9375 141.387 55.0938V54.625C141.387 53.6641 141.523 52.7852 141.797 51.9883C142.07 51.1914 142.461 50.5 142.969 49.9141C143.484 49.3281 144.109 48.8789 144.844 48.5664C145.578 48.2461 146.406 48.0859 147.328 48.0859C148.227 48.0859 149.023 48.2344 149.719 48.5312C150.414 48.8281 150.996 49.25 151.465 49.7969C151.941 50.3438 152.301 51 152.543 51.7656C152.785 52.5234 152.906 53.3672 152.906 54.2969V55.7031H142.828V53.4531H149.59V53.1953C149.59 52.7266 149.504 52.3086 149.332 51.9414C149.168 51.5664 148.918 51.2695 148.582 51.0508C148.246 50.832 147.816 50.7227 147.293 50.7227C146.848 50.7227 146.465 50.8203 146.145 51.0156C145.824 51.2109 145.562 51.4844 145.359 51.8359C145.164 52.1875 145.016 52.6016 144.914 53.0781C144.82 53.5469 144.773 54.0625 144.773 54.625V55.0938C144.773 55.6016 144.844 56.0703 144.984 56.5C145.133 56.9297 145.34 57.3008 145.605 57.6133C145.879 57.9258 146.207 58.168 146.59 58.3398C146.98 58.5117 147.422 58.5977 147.914 58.5977C148.523 58.5977 149.09 58.4805 149.613 58.2461C150.145 58.0039 150.602 57.6406 150.984 57.1562L152.625 58.9375C152.359 59.3203 151.996 59.6875 151.535 60.0391C151.082 60.3906 150.535 60.6797 149.895 60.9062C149.254 61.125 148.523 61.2344 147.703 61.2344ZM158.203 51.0859V61H154.828V48.3203H158.004L158.203 51.0859ZM162.023 48.2383L161.965 51.3672C161.801 51.3438 161.602 51.3242 161.367 51.3086C161.141 51.2852 160.934 51.2734 160.746 51.2734C160.27 51.2734 159.855 51.3359 159.504 51.4609C159.16 51.5781 158.871 51.7539 158.637 51.9883C158.41 52.2227 158.238 52.5078 158.121 52.8438C158.012 53.1797 157.949 53.5625 157.934 53.9922L157.254 53.7812C157.254 52.9609 157.336 52.207 157.5 51.5195C157.664 50.8242 157.902 50.2188 158.215 49.7031C158.535 49.1875 158.926 48.7891 159.387 48.5078C159.848 48.2266 160.375 48.0859 160.969 48.0859C161.156 48.0859 161.348 48.1016 161.543 48.1328C161.738 48.1562 161.898 48.1914 162.023 48.2383ZM170.062 58.1406V52.4922C170.062 52.0859 169.996 51.7383 169.863 51.4492C169.73 51.1523 169.523 50.9219 169.242 50.7578C168.969 50.5938 168.613 50.5117 168.176 50.5117C167.801 50.5117 167.477 50.5781 167.203 50.7109C166.93 50.8359 166.719 51.0195 166.57 51.2617C166.422 51.4961 166.348 51.7734 166.348 52.0938H162.973C162.973 51.5547 163.098 51.043 163.348 50.5586C163.598 50.0742 163.961 49.6484 164.438 49.2812C164.914 48.9062 165.48 48.6133 166.137 48.4023C166.801 48.1914 167.543 48.0859 168.363 48.0859C169.348 48.0859 170.223 48.25 170.988 48.5781C171.754 48.9062 172.355 49.3984 172.793 50.0547C173.238 50.7109 173.461 51.5312 173.461 52.5156V57.9414C173.461 58.6367 173.504 59.207 173.59 59.6523C173.676 60.0898 173.801 60.4727 173.965 60.8008V61H170.555C170.391 60.6562 170.266 60.2266 170.18 59.7109C170.102 59.1875 170.062 58.6641 170.062 58.1406ZM170.508 53.2773L170.531 55.1875H168.645C168.199 55.1875 167.812 55.2383 167.484 55.3398C167.156 55.4414 166.887 55.5859 166.676 55.7734C166.465 55.9531 166.309 56.1641 166.207 56.4062C166.113 56.6484 166.066 56.9141 166.066 57.2031C166.066 57.4922 166.133 57.7539 166.266 57.9883C166.398 58.2148 166.59 58.3945 166.84 58.5273C167.09 58.6523 167.383 58.7148 167.719 58.7148C168.227 58.7148 168.668 58.6133 169.043 58.4102C169.418 58.207 169.707 57.957 169.91 57.6602C170.121 57.3633 170.23 57.082 170.238 56.8164L171.129 58.2461C171.004 58.5664 170.832 58.8984 170.613 59.2422C170.402 59.5859 170.133 59.9102 169.805 60.2148C169.477 60.5117 169.082 60.7578 168.621 60.9531C168.16 61.1406 167.613 61.2344 166.98 61.2344C166.176 61.2344 165.445 61.0742 164.789 60.7539C164.141 60.4258 163.625 59.9766 163.242 59.4062C162.867 58.8281 162.68 58.1719 162.68 57.4375C162.68 56.7734 162.805 56.1836 163.055 55.668C163.305 55.1523 163.672 54.7188 164.156 54.3672C164.648 54.0078 165.262 53.7383 165.996 53.5586C166.73 53.3711 167.582 53.2773 168.551 53.2773H170.508Z" fill="#888888"/>
<path d="M106.688 119H99.1172L99.1641 112.672H106.688C108.25 112.672 109.57 112.297 110.648 111.547C111.742 110.797 112.57 109.68 113.133 108.195C113.711 106.695 114 104.852 114 102.664V101.188C114 99.5469 113.836 98.1094 113.508 96.875C113.195 95.625 112.727 94.5859 112.102 93.7578C111.477 92.9141 110.695 92.2812 109.758 91.8594C108.836 91.4375 107.773 91.2266 106.57 91.2266H98.9766V84.875H106.57C108.883 84.875 111 85.2734 112.922 86.0703C114.859 86.8516 116.531 87.9766 117.938 89.4453C119.359 90.8984 120.453 92.625 121.219 94.625C122 96.6094 122.391 98.8125 122.391 101.234V102.664C122.391 105.07 122 107.273 121.219 109.273C120.453 111.273 119.367 113 117.961 114.453C116.555 115.906 114.891 117.031 112.969 117.828C111.062 118.609 108.969 119 106.688 119ZM103.828 84.875V119H95.6016V84.875H103.828ZM138.586 119.469C136.523 119.469 134.68 119.148 133.055 118.508C131.43 117.852 130.055 116.953 128.93 115.812C127.82 114.672 126.969 113.359 126.375 111.875C125.797 110.391 125.508 108.82 125.508 107.164V106.273C125.508 104.414 125.766 102.695 126.281 101.117C126.797 99.5234 127.562 98.1328 128.578 96.9453C129.594 95.7578 130.867 94.8359 132.398 94.1797C133.93 93.5078 135.711 93.1719 137.742 93.1719C139.539 93.1719 141.148 93.4609 142.57 94.0391C143.992 94.6172 145.195 95.4453 146.18 96.5234C147.18 97.6016 147.938 98.9062 148.453 100.438C148.984 101.969 149.25 103.688 149.25 105.594V108.805H128.531V103.859H141.539V103.25C141.555 102.406 141.406 101.688 141.094 101.094C140.797 100.5 140.359 100.047 139.781 99.7344C139.203 99.4219 138.5 99.2656 137.672 99.2656C136.812 99.2656 136.102 99.4531 135.539 99.8281C134.992 100.203 134.562 100.719 134.25 101.375C133.953 102.016 133.742 102.758 133.617 103.602C133.492 104.445 133.43 105.336 133.43 106.273V107.164C133.43 108.102 133.555 108.953 133.805 109.719C134.07 110.484 134.445 111.141 134.93 111.688C135.43 112.219 136.023 112.633 136.711 112.93C137.414 113.227 138.211 113.375 139.102 113.375C140.18 113.375 141.242 113.172 142.289 112.766C143.336 112.359 144.234 111.688 144.984 110.75L148.57 115.016C148.055 115.75 147.32 116.461 146.367 117.148C145.43 117.836 144.305 118.398 142.992 118.836C141.68 119.258 140.211 119.469 138.586 119.469ZM160.43 98.5156V128.75H152.531V93.6406H159.891L160.43 98.5156ZM175.992 106.016V106.508C175.992 108.352 175.781 110.062 175.359 111.641C174.938 113.219 174.312 114.594 173.484 115.766C172.656 116.938 171.625 117.852 170.391 118.508C169.172 119.148 167.758 119.469 166.148 119.469C164.633 119.469 163.328 119.133 162.234 118.461C161.141 117.789 160.227 116.859 159.492 115.672C158.758 114.484 158.164 113.125 157.711 111.594C157.258 110.062 156.898 108.445 156.633 106.742V106.109C156.898 104.281 157.258 102.586 157.711 101.023C158.164 99.4453 158.758 98.0703 159.492 96.8984C160.227 95.7266 161.133 94.8125 162.211 94.1562C163.305 93.5 164.609 93.1719 166.125 93.1719C167.734 93.1719 169.148 93.4766 170.367 94.0859C171.602 94.6953 172.633 95.5703 173.461 96.7109C174.305 97.8359 174.938 99.1875 175.359 100.766C175.781 102.344 175.992 104.094 175.992 106.016ZM168.094 106.508V106.016C168.094 105.031 168.023 104.133 167.883 103.32C167.742 102.492 167.516 101.773 167.203 101.164C166.906 100.555 166.508 100.086 166.008 99.7578C165.508 99.4297 164.891 99.2656 164.156 99.2656C163.312 99.2656 162.602 99.3984 162.023 99.6641C161.461 99.9141 161.008 100.305 160.664 100.836C160.336 101.352 160.102 102 159.961 102.781C159.836 103.547 159.781 104.445 159.797 105.477V107.398C159.766 108.586 159.883 109.633 160.148 110.539C160.414 111.43 160.875 112.125 161.531 112.625C162.188 113.125 163.078 113.375 164.203 113.375C164.953 113.375 165.578 113.203 166.078 112.859C166.578 112.5 166.977 112.008 167.273 111.383C167.57 110.742 167.781 110.008 167.906 109.18C168.031 108.352 168.094 107.461 168.094 106.508ZM187.852 83V119H179.93V83H187.852ZM191.742 106.578V106.086C191.742 104.227 192.008 102.516 192.539 100.953C193.07 99.375 193.852 98.0078 194.883 96.8516C195.914 95.6953 197.188 94.7969 198.703 94.1562C200.219 93.5 201.969 93.1719 203.953 93.1719C205.953 93.1719 207.711 93.5 209.227 94.1562C210.758 94.7969 212.039 95.6953 213.07 96.8516C214.102 98.0078 214.883 99.375 215.414 100.953C215.945 102.516 216.211 104.227 216.211 106.086V106.578C216.211 108.422 215.945 110.133 215.414 111.711C214.883 113.273 214.102 114.641 213.07 115.812C212.039 116.969 210.766 117.867 209.25 118.508C207.734 119.148 205.984 119.469 204 119.469C202.016 119.469 200.258 119.148 198.727 118.508C197.195 117.867 195.914 116.969 194.883 115.812C193.852 114.641 193.07 113.273 192.539 111.711C192.008 110.133 191.742 108.422 191.742 106.578ZM199.641 106.086V106.578C199.641 107.531 199.711 108.422 199.852 109.25C199.992 110.078 200.227 110.805 200.555 111.43C200.883 112.039 201.328 112.516 201.891 112.859C202.453 113.203 203.156 113.375 204 113.375C204.828 113.375 205.516 113.203 206.062 112.859C206.625 112.516 207.07 112.039 207.398 111.43C207.727 110.805 207.961 110.078 208.102 109.25C208.242 108.422 208.312 107.531 208.312 106.578V106.086C208.312 105.164 208.242 104.297 208.102 103.484C207.961 102.656 207.727 101.93 207.398 101.305C207.07 100.664 206.625 100.164 206.062 99.8047C205.5 99.4453 204.797 99.2656 203.953 99.2656C203.125 99.2656 202.43 99.4453 201.867 99.8047C201.32 100.164 200.883 100.664 200.555 101.305C200.227 101.93 199.992 102.656 199.852 103.484C199.711 104.297 199.641 105.164 199.641 106.086ZM227.133 116.023L233.695 93.6406H242.18L231.984 122.773C231.766 123.414 231.477 124.102 231.117 124.836C230.758 125.586 230.266 126.297 229.641 126.969C229.016 127.641 228.211 128.188 227.227 128.609C226.258 129.031 225.055 129.242 223.617 129.242C222.852 129.242 222.289 129.203 221.93 129.125C221.586 129.062 221.055 128.945 220.336 128.773V123.125C220.539 123.125 220.711 123.125 220.852 123.125C221.008 123.125 221.18 123.125 221.367 123.125C222.211 123.125 222.883 123.039 223.383 122.867C223.898 122.695 224.289 122.445 224.555 122.117C224.836 121.789 225.055 121.391 225.211 120.922L227.133 116.023ZM225.469 93.6406L230.461 111.383L231.328 119.75H226.031L217.008 93.6406H225.469ZM252.211 99.0078V119H244.312V93.6406H251.719L252.211 99.0078ZM251.25 105.453L249.445 105.5C249.445 103.719 249.656 102.078 250.078 100.578C250.5 99.0781 251.125 97.7734 251.953 96.6641C252.781 95.5547 253.797 94.6953 255 94.0859C256.219 93.4766 257.625 93.1719 259.219 93.1719C260.328 93.1719 261.336 93.3438 262.242 93.6875C263.148 94.0156 263.93 94.5391 264.586 95.2578C265.242 95.9609 265.742 96.8828 266.086 98.0234C266.445 99.1484 266.625 100.5 266.625 102.078V119H258.727V103.086C258.727 102.008 258.602 101.195 258.352 100.648C258.117 100.102 257.773 99.7344 257.32 99.5469C256.867 99.3594 256.312 99.2656 255.656 99.2656C254.969 99.2656 254.352 99.4219 253.805 99.7344C253.258 100.047 252.789 100.484 252.398 101.047C252.023 101.594 251.734 102.242 251.531 102.992C251.344 103.742 251.25 104.562 251.25 105.453ZM265.734 105.453L263.531 105.5C263.531 103.719 263.727 102.078 264.117 100.578C264.523 99.0781 265.125 97.7734 265.922 96.6641C266.734 95.5547 267.742 94.6953 268.945 94.0859C270.148 93.4766 271.547 93.1719 273.141 93.1719C274.297 93.1719 275.359 93.3438 276.328 93.6875C277.297 94.0312 278.133 94.5859 278.836 95.3516C279.539 96.1172 280.086 97.1328 280.477 98.3984C280.867 99.6484 281.062 101.195 281.062 103.039V119H273.141V103.039C273.141 101.992 273.016 101.203 272.766 100.672C272.531 100.125 272.188 99.7578 271.734 99.5703C271.281 99.3672 270.742 99.2656 270.117 99.2656C269.367 99.2656 268.719 99.4219 268.172 99.7344C267.625 100.047 267.164 100.484 266.789 101.047C266.43 101.594 266.164 102.242 265.992 102.992C265.82 103.742 265.734 104.562 265.734 105.453ZM297.867 119.469C295.805 119.469 293.961 119.148 292.336 118.508C290.711 117.852 289.336 116.953 288.211 115.812C287.102 114.672 286.25 113.359 285.656 111.875C285.078 110.391 284.789 108.82 284.789 107.164V106.273C284.789 104.414 285.047 102.695 285.562 101.117C286.078 99.5234 286.844 98.1328 287.859 96.9453C288.875 95.7578 290.148 94.8359 291.68 94.1797C293.211 93.5078 294.992 93.1719 297.023 93.1719C298.82 93.1719 300.43 93.4609 301.852 94.0391C303.273 94.6172 304.477 95.4453 305.461 96.5234C306.461 97.6016 307.219 98.9062 307.734 100.438C308.266 101.969 308.531 103.688 308.531 105.594V108.805H287.812V103.859H300.82V103.25C300.836 102.406 300.688 101.688 300.375 101.094C300.078 100.5 299.641 100.047 299.062 99.7344C298.484 99.4219 297.781 99.2656 296.953 99.2656C296.094 99.2656 295.383 99.4531 294.82 99.8281C294.273 100.203 293.844 100.719 293.531 101.375C293.234 102.016 293.023 102.758 292.898 103.602C292.773 104.445 292.711 105.336 292.711 106.273V107.164C292.711 108.102 292.836 108.953 293.086 109.719C293.352 110.484 293.727 111.141 294.211 111.688C294.711 112.219 295.305 112.633 295.992 112.93C296.695 113.227 297.492 113.375 298.383 113.375C299.461 113.375 300.523 113.172 301.57 112.766C302.617 112.359 303.516 111.688 304.266 110.75L307.852 115.016C307.336 115.75 306.602 116.461 305.648 117.148C304.711 117.836 303.586 118.398 302.273 118.836C300.961 119.258 299.492 119.469 297.867 119.469ZM319.5 99.0547V119H311.602V93.6406H319.008L319.5 99.0547ZM318.562 105.453L316.711 105.5C316.711 103.562 316.945 101.836 317.414 100.32C317.883 98.7891 318.547 97.4922 319.406 96.4297C320.266 95.3672 321.289 94.5625 322.477 94.0156C323.68 93.4531 325.016 93.1719 326.484 93.1719C327.656 93.1719 328.727 93.3438 329.695 93.6875C330.68 94.0312 331.523 94.5859 332.227 95.3516C332.945 96.1172 333.492 97.1328 333.867 98.3984C334.258 99.6484 334.453 101.195 334.453 103.039V119H326.508V103.016C326.508 102 326.367 101.227 326.086 100.695C325.805 100.148 325.398 99.7734 324.867 99.5703C324.336 99.3672 323.688 99.2656 322.922 99.2656C322.109 99.2656 321.422 99.4219 320.859 99.7344C320.297 100.047 319.844 100.484 319.5 101.047C319.172 101.594 318.93 102.242 318.773 102.992C318.633 103.742 318.562 104.562 318.562 105.453ZM352.195 93.6406V99.125H336.914V93.6406H352.195ZM340.125 87.3359H348.023V110.727C348.023 111.398 348.102 111.922 348.258 112.297C348.414 112.656 348.68 112.914 349.055 113.07C349.445 113.211 349.961 113.281 350.602 113.281C351.055 113.281 351.43 113.273 351.727 113.258C352.023 113.227 352.305 113.188 352.57 113.141V118.789C351.898 119.008 351.195 119.172 350.461 119.281C349.727 119.406 348.945 119.469 348.117 119.469C346.43 119.469 344.984 119.203 343.781 118.672C342.594 118.141 341.688 117.305 341.062 116.164C340.438 115.023 340.125 113.539 340.125 111.711V87.3359Z" fill="#F08F46"/>
<path d="M1134 0H1348C1356.28 0 1363 6.71573 1363 15V148C1363 156.284 1356.28 163 1348 163H1134V0Z" fill="url(#paint0_linear_3_93)"/>
<path d="M1212.5 117.5L1212.5 45.5L1284.5 45.5L1284.5 117.5L1212.5 117.5Z" fill="white" fill-opacity="0.01"/>
<path d="M1221.5 81.5125L1221.5 108.5L1275.5 108.5L1275.5 81.5" stroke="white" stroke-width="7.24" stroke-linecap="round" stroke-linejoin="round"/>
<path d="M1262 68L1248.5 54.5L1235 68" stroke="white" stroke-width="7.24" stroke-linecap="round" stroke-linejoin="round"/>
<path d="M1248.49 93.4999L1248.49 54.5" stroke="white" stroke-width="7.24" stroke-linecap="round" stroke-linejoin="round"/>
<defs>
<linearGradient id="paint0_linear_3_93" x1="1248.5" y1="0" x2="1248.5" y2="163" gradientUnits="userSpaceOnUse">
<stop stop-color="#4EBCAF"/>
<stop offset="1" stop-color="#5DA69D"/>
</linearGradient>
</defs>
</svg>
