<svg width="1363" height="163" viewBox="0 0 1363 163" fill="none" xmlns="http://www.w3.org/2000/svg">
<path d="M0 15C0 6.71573 6.71573 0 15 0H37V163H15C6.71573 163 0 156.284 0 148V15Z" fill="#2F9089"/>
<rect width="1097" height="163" transform="translate(37)" fill="#F0F0F0"/>
<path d="M100.676 57.4375L104.695 43.9375H108.609L102.668 61H100.09L100.676 57.4375ZM96.9727 43.9375L100.98 57.4375L101.59 61H98.9883L93.082 43.9375H96.9727ZM108.914 54.7891V54.543C108.914 53.6133 109.047 52.7578 109.312 51.9766C109.578 51.1875 109.965 50.5039 110.473 49.9258C110.98 49.3477 111.605 48.8984 112.348 48.5781C113.09 48.25 113.941 48.0859 114.902 48.0859C115.863 48.0859 116.719 48.25 117.469 48.5781C118.219 48.8984 118.848 49.3477 119.355 49.9258C119.871 50.5039 120.262 51.1875 120.527 51.9766C120.793 52.7578 120.926 53.6133 120.926 54.543V54.7891C120.926 55.7109 120.793 56.5664 120.527 57.3555C120.262 58.1367 119.871 58.8203 119.355 59.4062C118.848 59.9844 118.223 60.4336 117.48 60.7539C116.738 61.0742 115.887 61.2344 114.926 61.2344C113.965 61.2344 113.109 61.0742 112.359 60.7539C111.617 60.4336 110.988 59.9844 110.473 59.4062C109.965 58.8203 109.578 58.1367 109.312 57.3555C109.047 56.5664 108.914 55.7109 108.914 54.7891ZM112.289 54.543V54.7891C112.289 55.3203 112.336 55.8164 112.43 56.2773C112.523 56.7383 112.672 57.1445 112.875 57.4961C113.086 57.8398 113.359 58.1094 113.695 58.3047C114.031 58.5 114.441 58.5977 114.926 58.5977C115.395 58.5977 115.797 58.5 116.133 58.3047C116.469 58.1094 116.738 57.8398 116.941 57.4961C117.145 57.1445 117.293 56.7383 117.387 56.2773C117.488 55.8164 117.539 55.3203 117.539 54.7891V54.543C117.539 54.0273 117.488 53.543 117.387 53.0898C117.293 52.6289 117.141 52.2227 116.93 51.8711C116.727 51.5117 116.457 51.2305 116.121 51.0273C115.785 50.8242 115.379 50.7227 114.902 50.7227C114.426 50.7227 114.02 50.8242 113.684 51.0273C113.355 51.2305 113.086 51.5117 112.875 51.8711C112.672 52.2227 112.523 52.6289 112.43 53.0898C112.336 53.543 112.289 54.0273 112.289 54.543ZM126.562 48.3203V61H123.176V48.3203H126.562ZM122.965 45.0156C122.965 44.5234 123.137 44.1172 123.48 43.7969C123.824 43.4766 124.285 43.3164 124.863 43.3164C125.434 43.3164 125.891 43.4766 126.234 43.7969C126.586 44.1172 126.762 44.5234 126.762 45.0156C126.762 45.5078 126.586 45.9141 126.234 46.2344C125.891 46.5547 125.434 46.7148 124.863 46.7148C124.285 46.7148 123.824 46.5547 123.48 46.2344C123.137 45.9141 122.965 45.5078 122.965 45.0156ZM134.59 58.5977C135.004 58.5977 135.371 58.5195 135.691 58.3633C136.012 58.1992 136.262 57.9727 136.441 57.6836C136.629 57.3867 136.727 57.0391 136.734 56.6406H139.91C139.902 57.5312 139.664 58.3242 139.195 59.0195C138.727 59.707 138.098 60.25 137.309 60.6484C136.52 61.0391 135.637 61.2344 134.66 61.2344C133.676 61.2344 132.816 61.0703 132.082 60.7422C131.355 60.4141 130.75 59.9609 130.266 59.3828C129.781 58.7969 129.418 58.1172 129.176 57.3438C128.934 56.5625 128.812 55.7266 128.812 54.8359V54.4961C128.812 53.5977 128.934 52.7617 129.176 51.9883C129.418 51.207 129.781 50.5273 130.266 49.9492C130.75 49.3633 131.355 48.9062 132.082 48.5781C132.809 48.25 133.66 48.0859 134.637 48.0859C135.676 48.0859 136.586 48.2852 137.367 48.6836C138.156 49.082 138.773 49.6523 139.219 50.3945C139.672 51.1289 139.902 52 139.91 53.0078H136.734C136.727 52.5859 136.637 52.2031 136.465 51.8594C136.301 51.5156 136.059 51.2422 135.738 51.0391C135.426 50.8281 135.039 50.7227 134.578 50.7227C134.086 50.7227 133.684 50.8281 133.371 51.0391C133.059 51.2422 132.816 51.5234 132.645 51.8828C132.473 52.2344 132.352 52.6367 132.281 53.0898C132.219 53.5352 132.188 54.0039 132.188 54.4961V54.8359C132.188 55.3281 132.219 55.8008 132.281 56.2539C132.344 56.707 132.461 57.1094 132.633 57.4609C132.812 57.8125 133.059 58.0898 133.371 58.293C133.684 58.4961 134.09 58.5977 134.59 58.5977ZM147.703 61.2344C146.719 61.2344 145.836 61.0781 145.055 60.7656C144.273 60.4453 143.609 60.0039 143.062 59.4414C142.523 58.8789 142.109 58.2266 141.82 57.4844C141.531 56.7344 141.387 55.9375 141.387 55.0938V54.625C141.387 53.6641 141.523 52.7852 141.797 51.9883C142.07 51.1914 142.461 50.5 142.969 49.9141C143.484 49.3281 144.109 48.8789 144.844 48.5664C145.578 48.2461 146.406 48.0859 147.328 48.0859C148.227 48.0859 149.023 48.2344 149.719 48.5312C150.414 48.8281 150.996 49.25 151.465 49.7969C151.941 50.3438 152.301 51 152.543 51.7656C152.785 52.5234 152.906 53.3672 152.906 54.2969V55.7031H142.828V53.4531H149.59V53.1953C149.59 52.7266 149.504 52.3086 149.332 51.9414C149.168 51.5664 148.918 51.2695 148.582 51.0508C148.246 50.832 147.816 50.7227 147.293 50.7227C146.848 50.7227 146.465 50.8203 146.145 51.0156C145.824 51.2109 145.562 51.4844 145.359 51.8359C145.164 52.1875 145.016 52.6016 144.914 53.0781C144.82 53.5469 144.773 54.0625 144.773 54.625V55.0938C144.773 55.6016 144.844 56.0703 144.984 56.5C145.133 56.9297 145.34 57.3008 145.605 57.6133C145.879 57.9258 146.207 58.168 146.59 58.3398C146.98 58.5117 147.422 58.5977 147.914 58.5977C148.523 58.5977 149.09 58.4805 149.613 58.2461C150.145 58.0039 150.602 57.6406 150.984 57.1562L152.625 58.9375C152.359 59.3203 151.996 59.6875 151.535 60.0391C151.082 60.3906 150.535 60.6797 149.895 60.9062C149.254 61.125 148.523 61.2344 147.703 61.2344ZM158.203 51.0859V61H154.828V48.3203H158.004L158.203 51.0859ZM162.023 48.2383L161.965 51.3672C161.801 51.3438 161.602 51.3242 161.367 51.3086C161.141 51.2852 160.934 51.2734 160.746 51.2734C160.27 51.2734 159.855 51.3359 159.504 51.4609C159.16 51.5781 158.871 51.7539 158.637 51.9883C158.41 52.2227 158.238 52.5078 158.121 52.8438C158.012 53.1797 157.949 53.5625 157.934 53.9922L157.254 53.7812C157.254 52.9609 157.336 52.207 157.5 51.5195C157.664 50.8242 157.902 50.2188 158.215 49.7031C158.535 49.1875 158.926 48.7891 159.387 48.5078C159.848 48.2266 160.375 48.0859 160.969 48.0859C161.156 48.0859 161.348 48.1016 161.543 48.1328C161.738 48.1562 161.898 48.1914 162.023 48.2383ZM170.062 58.1406V52.4922C170.062 52.0859 169.996 51.7383 169.863 51.4492C169.73 51.1523 169.523 50.9219 169.242 50.7578C168.969 50.5938 168.613 50.5117 168.176 50.5117C167.801 50.5117 167.477 50.5781 167.203 50.7109C166.93 50.8359 166.719 51.0195 166.57 51.2617C166.422 51.4961 166.348 51.7734 166.348 52.0938H162.973C162.973 51.5547 163.098 51.043 163.348 50.5586C163.598 50.0742 163.961 49.6484 164.438 49.2812C164.914 48.9062 165.48 48.6133 166.137 48.4023C166.801 48.1914 167.543 48.0859 168.363 48.0859C169.348 48.0859 170.223 48.25 170.988 48.5781C171.754 48.9062 172.355 49.3984 172.793 50.0547C173.238 50.7109 173.461 51.5312 173.461 52.5156V57.9414C173.461 58.6367 173.504 59.207 173.59 59.6523C173.676 60.0898 173.801 60.4727 173.965 60.8008V61H170.555C170.391 60.6562 170.266 60.2266 170.18 59.7109C170.102 59.1875 170.062 58.6641 170.062 58.1406ZM170.508 53.2773L170.531 55.1875H168.645C168.199 55.1875 167.812 55.2383 167.484 55.3398C167.156 55.4414 166.887 55.5859 166.676 55.7734C166.465 55.9531 166.309 56.1641 166.207 56.4062C166.113 56.6484 166.066 56.9141 166.066 57.2031C166.066 57.4922 166.133 57.7539 166.266 57.9883C166.398 58.2148 166.59 58.3945 166.84 58.5273C167.09 58.6523 167.383 58.7148 167.719 58.7148C168.227 58.7148 168.668 58.6133 169.043 58.4102C169.418 58.207 169.707 57.957 169.91 57.6602C170.121 57.3633 170.23 57.082 170.238 56.8164L171.129 58.2461C171.004 58.5664 170.832 58.8984 170.613 59.2422C170.402 59.5859 170.133 59.9102 169.805 60.2148C169.477 60.5117 169.082 60.7578 168.621 60.9531C168.16 61.1406 167.613 61.2344 166.98 61.2344C166.176 61.2344 165.445 61.0742 164.789 60.7539C164.141 60.4258 163.625 59.9766 163.242 59.4062C162.867 58.8281 162.68 58.1719 162.68 57.4375C162.68 56.7734 162.805 56.1836 163.055 55.668C163.305 55.1523 163.672 54.7188 164.156 54.3672C164.648 54.0078 165.262 53.7383 165.996 53.5586C166.73 53.3711 167.582 53.2773 168.551 53.2773H170.508Z" fill="#888888"/>
<path d="M106.688 119H99.1172L99.1641 112.672H106.688C108.25 112.672 109.57 112.297 110.648 111.547C111.742 110.797 112.57 109.68 113.133 108.195C113.711 106.695 114 104.852 114 102.664V101.188C114 99.5469 113.836 98.1094 113.508 96.875C113.195 95.625 112.727 94.5859 112.102 93.7578C111.477 92.9141 110.695 92.2812 109.758 91.8594C108.836 91.4375 107.773 91.2266 106.57 91.2266H98.9766V84.875H106.57C108.883 84.875 111 85.2734 112.922 86.0703C114.859 86.8516 116.531 87.9766 117.938 89.4453C119.359 90.8984 120.453 92.625 121.219 94.625C122 96.6094 122.391 98.8125 122.391 101.234V102.664C122.391 105.07 122 107.273 121.219 109.273C120.453 111.273 119.367 113 117.961 114.453C116.555 115.906 114.891 117.031 112.969 117.828C111.062 118.609 108.969 119 106.688 119ZM103.828 84.875V119H95.6016V84.875H103.828ZM138.586 119.469C136.523 119.469 134.68 119.148 133.055 118.508C131.43 117.852 130.055 116.953 128.93 115.812C127.82 114.672 126.969 113.359 126.375 111.875C125.797 110.391 125.508 108.82 125.508 107.164V106.273C125.508 104.414 125.766 102.695 126.281 101.117C126.797 99.5234 127.562 98.1328 128.578 96.9453C129.594 95.7578 130.867 94.8359 132.398 94.1797C133.93 93.5078 135.711 93.1719 137.742 93.1719C139.539 93.1719 141.148 93.4609 142.57 94.0391C143.992 94.6172 145.195 95.4453 146.18 96.5234C147.18 97.6016 147.938 98.9062 148.453 100.438C148.984 101.969 149.25 103.688 149.25 105.594V108.805H128.531V103.859H141.539V103.25C141.555 102.406 141.406 101.688 141.094 101.094C140.797 100.5 140.359 100.047 139.781 99.7344C139.203 99.4219 138.5 99.2656 137.672 99.2656C136.812 99.2656 136.102 99.4531 135.539 99.8281C134.992 100.203 134.562 100.719 134.25 101.375C133.953 102.016 133.742 102.758 133.617 103.602C133.492 104.445 133.43 105.336 133.43 106.273V107.164C133.43 108.102 133.555 108.953 133.805 109.719C134.07 110.484 134.445 111.141 134.93 111.688C135.43 112.219 136.023 112.633 136.711 112.93C137.414 113.227 138.211 113.375 139.102 113.375C140.18 113.375 141.242 113.172 142.289 112.766C143.336 112.359 144.234 111.688 144.984 110.75L148.57 115.016C148.055 115.75 147.32 116.461 146.367 117.148C145.43 117.836 144.305 118.398 142.992 118.836C141.68 119.258 140.211 119.469 138.586 119.469ZM160.43 99.0078V119H152.531V93.6406H159.938L160.43 99.0078ZM159.469 105.453L157.664 105.5C157.664 103.719 157.875 102.078 158.297 100.578C158.719 99.0781 159.344 97.7734 160.172 96.6641C161 95.5547 162.016 94.6953 163.219 94.0859C164.438 93.4766 165.844 93.1719 167.438 93.1719C168.547 93.1719 169.555 93.3438 170.461 93.6875C171.367 94.0156 172.148 94.5391 172.805 95.2578C173.461 95.9609 173.961 96.8828 174.305 98.0234C174.664 99.1484 174.844 100.5 174.844 102.078V119H166.945V103.086C166.945 102.008 166.82 101.195 166.57 100.648C166.336 100.102 165.992 99.7344 165.539 99.5469C165.086 99.3594 164.531 99.2656 163.875 99.2656C163.188 99.2656 162.57 99.4219 162.023 99.7344C161.477 100.047 161.008 100.484 160.617 101.047C160.242 101.594 159.953 102.242 159.75 102.992C159.562 103.742 159.469 104.562 159.469 105.453ZM173.953 105.453L171.75 105.5C171.75 103.719 171.945 102.078 172.336 100.578C172.742 99.0781 173.344 97.7734 174.141 96.6641C174.953 95.5547 175.961 94.6953 177.164 94.0859C178.367 93.4766 179.766 93.1719 181.359 93.1719C182.516 93.1719 183.578 93.3438 184.547 93.6875C185.516 94.0312 186.352 94.5859 187.055 95.3516C187.758 96.1172 188.305 97.1328 188.695 98.3984C189.086 99.6484 189.281 101.195 189.281 103.039V119H181.359V103.039C181.359 101.992 181.234 101.203 180.984 100.672C180.75 100.125 180.406 99.7578 179.953 99.5703C179.5 99.3672 178.961 99.2656 178.336 99.2656C177.586 99.2656 176.938 99.4219 176.391 99.7344C175.844 100.047 175.383 100.484 175.008 101.047C174.648 101.594 174.383 102.242 174.211 102.992C174.039 103.742 173.953 104.562 173.953 105.453ZM192.82 106.578V106.086C192.82 104.227 193.086 102.516 193.617 100.953C194.148 99.375 194.93 98.0078 195.961 96.8516C196.992 95.6953 198.266 94.7969 199.781 94.1562C201.297 93.5 203.047 93.1719 205.031 93.1719C207.031 93.1719 208.789 93.5 210.305 94.1562C211.836 94.7969 213.117 95.6953 214.148 96.8516C215.18 98.0078 215.961 99.375 216.492 100.953C217.023 102.516 217.289 104.227 217.289 106.086V106.578C217.289 108.422 217.023 110.133 216.492 111.711C215.961 113.273 215.18 114.641 214.148 115.812C213.117 116.969 211.844 117.867 210.328 118.508C208.812 119.148 207.062 119.469 205.078 119.469C203.094 119.469 201.336 119.148 199.805 118.508C198.273 117.867 196.992 116.969 195.961 115.812C194.93 114.641 194.148 113.273 193.617 111.711C193.086 110.133 192.82 108.422 192.82 106.578ZM200.719 106.086V106.578C200.719 107.531 200.789 108.422 200.93 109.25C201.07 110.078 201.305 110.805 201.633 111.43C201.961 112.039 202.406 112.516 202.969 112.859C203.531 113.203 204.234 113.375 205.078 113.375C205.906 113.375 206.594 113.203 207.141 112.859C207.703 112.516 208.148 112.039 208.477 111.43C208.805 110.805 209.039 110.078 209.18 109.25C209.32 108.422 209.391 107.531 209.391 106.578V106.086C209.391 105.164 209.32 104.297 209.18 103.484C209.039 102.656 208.805 101.93 208.477 101.305C208.148 100.664 207.703 100.164 207.141 99.8047C206.578 99.4453 205.875 99.2656 205.031 99.2656C204.203 99.2656 203.508 99.4453 202.945 99.8047C202.398 100.164 201.961 100.664 201.633 101.305C201.305 101.93 201.07 102.656 200.93 103.484C200.789 104.297 200.719 105.164 200.719 106.086Z" fill="#F08F46"/>
<path d="M1134 0H1348C1356.28 0 1363 6.71573 1363 15V148C1363 156.284 1356.28 163 1348 163H1134V0Z" fill="url(#paint0_linear_401_327)"/>
<path d="M1280.07 47.5H1216.93L1214.5 49.9286V113.071L1216.93 115.5H1280.07L1282.5 113.071V49.9286L1280.07 47.5ZM1277.64 110.643H1233.93V100.929H1245.1C1246.56 103.843 1249.96 105.786 1253.36 105.786C1258.7 105.786 1263.07 101.414 1263.07 96.0714C1263.07 90.7286 1258.7 86.3571 1253.36 86.3571C1248.01 86.3571 1243.64 90.7286 1243.64 96.0714H1229.07V110.643H1219.36V52.3571H1229.07V63.5286C1226.16 64.9857 1224.21 68.3857 1224.21 71.7857C1224.21 77.1286 1228.59 81.5 1233.93 81.5C1239.27 81.5 1243.64 77.1286 1243.64 71.7857H1253.36C1253.36 77.1286 1257.73 81.5 1263.07 81.5C1268.41 81.5 1272.79 77.1286 1272.79 71.7857C1272.79 66.4429 1268.41 62.0714 1263.07 62.0714C1259.67 62.0714 1256.27 64.0143 1254.81 66.9286H1242.19C1240.73 64.0143 1237.33 62.0714 1233.93 62.0714V52.3571H1277.64V110.643ZM1248.5 96.0714C1248.5 93.1571 1250.44 91.2143 1253.36 91.2143C1256.27 91.2143 1258.21 93.1571 1258.21 96.0714C1258.21 98.9857 1256.27 100.929 1253.36 100.929C1250.44 100.929 1248.5 98.9857 1248.5 96.0714ZM1233.93 66.9286C1236.84 66.9286 1238.79 68.8714 1238.79 71.7857C1238.79 74.7 1236.84 76.6429 1233.93 76.6429C1231.01 76.6429 1229.07 74.7 1229.07 71.7857C1229.07 68.8714 1231.01 66.9286 1233.93 66.9286ZM1263.07 66.9286C1265.99 66.9286 1267.93 68.8714 1267.93 71.7857C1267.93 74.7 1265.99 76.6429 1263.07 76.6429C1260.16 76.6429 1258.21 74.7 1258.21 71.7857C1258.21 68.8714 1260.16 66.9286 1263.07 66.9286Z" fill="white"/>
<defs>
<linearGradient id="paint0_linear_401_327" x1="1248.5" y1="0" x2="1248.5" y2="163" gradientUnits="userSpaceOnUse">
<stop stop-color="#4EBCAF"/>
<stop offset="1" stop-color="#5DA69D"/>
</linearGradient>
</defs>
</svg>
